<svg xmlns="http://www.w3.org/2000/svg" viewBox="0 0 120 56">
  <defs>
    <style>
      .cls-1 {
        fill: #58c710;
      }

      .cls-2, .cls-3 {
        fill: #fff;
      }

      .cls-2 {
        font-size: 14px;
        font-family: Roboto-Regular, Roboto;
      }
    </style>
  </defs>
  <g id="водители" transform="translate(0 -537)">
    <rect id="Bounds" class="cls-1" width="120" height="56" transform="translate(0 537)"/>
    <text id="Водители-2" data-name="Водители" class="cls-2" transform="translate(28 584)"><tspan x="0" y="0">Водители</tspan></text>
    <path id="Path_268" data-name="Path 268" class="cls-3" d="M35.888,117.326H33.175l-2.522-5.895a6.384,6.384,0,0,0-5.885-3.864H20.655a.8.8,0,1,0,0,1.6h4.112a4.772,4.772,0,0,1,4.4,2.888l2.255,5.269H20.781v-5.865a.807.807,0,0,0-1.615,0v5.865H8.114v-3.532a4.649,4.649,0,0,1,4.662-4.626H14.44a.8.8,0,1,0,0-1.6H12.776A6.26,6.26,0,0,0,6.5,113.795v3.532H5.447A5.432,5.432,0,0,0,0,122.731v5.248a.8.8,0,0,0,.807.8H3.794a.8.8,0,1,0,0-1.6H1.615v-2.725H4.058a.8.8,0,0,0,.807-.8v-2.946a.8.8,0,0,0-.807-.8H2.887a3.834,3.834,0,0,1,2.56-.976H34.061v2.237a.8.8,0,0,0,.807.8h4.775a3.774,3.774,0,0,1,.078.764v4.447H38.2a.8.8,0,1,0,0,1.6h2.332a.8.8,0,0,0,.807-.8v-5.248A5.432,5.432,0,0,0,35.888,117.326Zm-32.637,4.18v1.344H1.615v-.12a3.758,3.758,0,0,1,.205-1.225Zm32.425-1.142v-1.436h.213a3.838,3.838,0,0,1,3,1.436Z" transform="translate(39 437.432)"/>
    <path id="Path_269" data-name="Path 269" class="cls-3" d="M331.486,352.654a.87.87,0,1,0,.255.616A.877.877,0,0,0,331.486,352.654Z" transform="translate(-264.443 212.071)"/>
    <path id="Path_270" data-name="Path 270" class="cls-3" d="M186.086,321.435h-3.912v-2.082a.871.871,0,0,0-1.741,0v2.082h-4.562a.871.871,0,1,0,0,1.741h10.216a.871.871,0,1,0,0-1.741Z" transform="translate(-122.278 243.035)"/>
    <path id="Path_271" data-name="Path 271" class="cls-3" d="M209.265,107.824a.87.87,0,1,0,.255.615A.877.877,0,0,0,209.265,107.824Z" transform="translate(-152.058 437.43)"/>
    <path id="Path_272" data-name="Path 272" class="cls-3" d="M199.391,276h-.006l-1.953.013a.871.871,0,0,0,.006,1.741h.006l1.953-.013a.871.871,0,0,0-.006-1.741Z" transform="translate(-141.81 282.537)"/>
    <path id="Path_273" data-name="Path 273" class="cls-3" d="M78.469,320.165a3.668,3.668,0,1,0,3.669,3.668A3.673,3.673,0,0,0,78.469,320.165Zm0,5.6a1.927,1.927,0,1,1,1.927-1.927A1.929,1.929,0,0,1,78.469,325.76Z" transform="translate(-29.288 241.498)"/>
    <path id="Path_274" data-name="Path 274" class="cls-3" d="M372.727,320.165a3.668,3.668,0,1,0,3.669,3.668A3.673,3.673,0,0,0,372.727,320.165Zm0,5.6a1.927,1.927,0,1,1,1.927-1.927A1.929,1.929,0,0,1,372.727,325.76Z" transform="translate(-301.168 241.498)"/>
  </g>
</svg>
