<svg xmlns="http://www.w3.org/2000/svg" viewBox="0 0 26.739 24.023">
  <defs>
    <style>
      .cls-1 {
        fill: #fff;
      }
    </style>
  </defs>
  <g id="посылки" transform="translate(-289 -547.991)">
    <path id="Path_278" data-name="Path 278" class="cls-1" d="M80.522,320a.522.522,0,1,0,.522.522A.522.522,0,0,0,80.522,320Zm0,0" transform="translate(213.178 244.702)"/>
    <path id="Path_279" data-name="Path 279" class="cls-1" d="M80.522,380a.522.522,0,1,0,.522.522A.522.522,0,0,0,80.522,380Zm0,0" transform="translate(213.178 187.836)"/>
    <path id="Path_280" data-name="Path 280" class="cls-1" d="M24.127,0H2.611A2.614,2.614,0,0,0,0,2.611V5.745a.522.522,0,0,0,.522.522h.522V22.456a1.568,1.568,0,0,0,1.567,1.567H24.127a1.568,1.568,0,0,0,1.567-1.567V6.267h.522a.522.522,0,0,0,.522-.522V2.611A2.614,2.614,0,0,0,24.127,0ZM15.458,13.014,13.7,11.6a.522.522,0,0,0-.652,0l-1.763,1.41V1.044h4.178ZM1.044,2.611A1.568,1.568,0,0,1,2.611,1.044h7.625V5.222H1.044ZM24.65,22.456a.523.523,0,0,1-.522.522H2.611a.523.523,0,0,1-.522-.522V6.267h8.147V14.1a.522.522,0,0,0,.848.408l2.285-1.828,2.285,1.828A.522.522,0,0,0,16.5,14.1V6.267H24.65ZM25.694,5.222H16.5V1.044h7.625a1.568,1.568,0,0,1,1.567,1.567Zm0,0" transform="translate(289 547.991)"/>
    <path id="Path_281" data-name="Path 281" class="cls-1" d="M306.522,320a.522.522,0,0,0-.522.522v3.133a.522.522,0,0,0,.522.522h5.536a.522.522,0,0,0,.522-.522v-3.133a.522.522,0,0,0-.522-.522Zm5.013,3.133h-4.491v-2.089h4.491Zm0,0" transform="translate(-1.02 244.702)"/>
    <path id="Path_282" data-name="Path 282" class="cls-1" d="M123.969,320h-3.447a.522.522,0,0,0,0,1.045h3.447a.522.522,0,0,0,0-1.045Zm0,0" transform="translate(175.267 244.702)"/>
    <path id="Path_283" data-name="Path 283" class="cls-1" d="M123.969,380h-3.447a.522.522,0,0,0,0,1.045h3.447a.522.522,0,0,0,0-1.045Zm0,0" transform="translate(175.267 187.836)"/>
  </g>
</svg>
