<svg xmlns="http://www.w3.org/2000/svg" viewBox="0 0 21.401 24">
  <defs>
    <style>
      .cls-1 {
        fill: #fff;
      }
    </style>
  </defs>
  <g id="пассажиры" transform="translate(0)">
    <path id="Path_276" data-name="Path 276" class="cls-1" d="M48.773.968a2.146,2.146,0,0,0-3.894.742l-.05.241a2.712,2.712,0,0,0-5.279.872v.408a2.7,2.7,0,0,0,.861,1.979,3.008,3.008,0,0,0-.562.289,2.966,2.966,0,0,0-1.285,1.892L38.182,9.3l-.879.884H33.644a1.516,1.516,0,0,0-1.4,2.1h-.38a1.936,1.936,0,0,0-1.873,1.448l-.553,2.123a.469.469,0,1,0,.907.236l.553-2.123a1,1,0,0,1,.966-.747h6.867a.468.468,0,0,0,.333-.139l2.373-2.4a.469.469,0,1,0-.666-.66l-2.235,2.258h-4.89a.579.579,0,0,1,0-1.158H37.5a.469.469,0,0,0,.332-.138l2.683-2.7a.469.469,0,1,0-.665-.661l-.469.472.1-.513a2.046,2.046,0,1,1,4.008.83s0,.007,0,.01L42.314,14.09a1.412,1.412,0,0,1-1.377,1.121H34.273a2.158,2.158,0,0,0-2.133,1.921.47.47,0,0,0-.023.066l-1.436,5.511a.472.472,0,0,1-.456.353H29.135a.472.472,0,0,1-.457-.591l.783-3a.469.469,0,0,0-.907-.236l-.783,3A1.409,1.409,0,0,0,29.135,24h1.089a1.409,1.409,0,0,0,1.364-1.054l1.087-4.173c.022.024.043.048.066.071a2.206,2.206,0,0,0,1.565.659h2.282l-1.6,3.849a.469.469,0,0,0,.433.649h7.231a.469.469,0,0,0,.433-.649l-1.6-3.849h2.35a2.154,2.154,0,0,0,2.1-1.71l1.026-4.952a.469.469,0,1,0-.918-.19L45.011,17.6a1.213,1.213,0,0,1-1.183.963H34.306a1.263,1.263,0,0,1-.9-.378,1.181,1.181,0,0,1-.345-.854,1.214,1.214,0,0,1,1.208-1.184h6.664a2.353,2.353,0,0,0,2.295-1.868L45.8,1.9a1.208,1.208,0,1,1,2.366.49L46.77,9.112a.469.469,0,1,0,.918.19l1.393-6.721A2.131,2.131,0,0,0,48.773.968ZM40.462,19.5l1.483,3.56H36.12L37.6,19.5Zm1.8-14.5a1.776,1.776,0,0,1-1.774-1.774V2.823a1.774,1.774,0,1,1,3.549,0v.408A1.776,1.776,0,0,1,42.262,5.005Zm1.669,1.279a2.988,2.988,0,0,0-.54-.589,2.723,2.723,0,0,0,.772-.534Z" transform="translate(-27.725 0)"/>
  </g>
</svg>
