<svg xmlns="http://www.w3.org/2000/svg" viewBox="0 0 21.19 19.634">
  <defs>
    <style>
      .cls-1 {
        fill: #737373;
      }
    </style>
  </defs>
  <g id="помощь" transform="translate(0 -18.802)">
    <g id="Group_3659" data-name="Group 3659" transform="translate(8.691 21.742)">
      <g id="Group_3658" data-name="Group 3658" transform="translate(0 0)">
        <path id="Path_1327" data-name="Path 1327" class="cls-1" d="M214.286,90.574a2.33,2.33,0,0,0-1.756-.726,2.455,2.455,0,0,0-2.51,1.919,1.676,1.676,0,0,0,.423,1.323,2.311,2.311,0,0,0,1.74.713,2.431,2.431,0,0,0,2.526-1.918A1.661,1.661,0,0,0,214.286,90.574Zm-.587,1.193a1.461,1.461,0,0,1-1.516,1.018,1.32,1.32,0,0,1-.981-.372.654.654,0,0,1-.172-.528,1.47,1.47,0,0,1,1.5-1.019,1.338,1.338,0,0,1,1,.385A.653.653,0,0,1,213.7,91.767Z" transform="translate(-210.008 -89.848)"/>
      </g>
    </g>
    <g id="Group_3661" data-name="Group 3661" transform="translate(7.874 26.213)">
      <g id="Group_3660" data-name="Group 3660" transform="translate(0 0)">
        <path id="Path_1328" data-name="Path 1328" class="cls-1" d="M194.872,204.979c-.127-.085-.425-.285-.185-1.67.006-.03.03-.142.068-.315.085-.4.244-1.132.417-1.953v-.006a2.74,2.74,0,0,0-.4-2.245,2.4,2.4,0,0,0-1.769-.906,2.965,2.965,0,0,0-2.6,1.215.63.63,0,0,0-.023.633.81.81,0,0,0,.268.277c.125.089.418.3.14,1.679-.026.126-.414,2.1-.465,2.378v.006a2.7,2.7,0,0,0,.462,2.233,2.523,2.523,0,0,0,1.926.862,2.96,2.96,0,0,0,2.438-1.286.629.629,0,0,0,.007-.633A.809.809,0,0,0,194.872,204.979Zm-.7-4.145c-.172.817-.33,1.55-.415,1.944-.058.268-.069.322-.074.345v.005c-.258,1.484,0,2.134.373,2.5a2,2,0,0,1-.411.276,2.089,2.089,0,0,1-1.025.247,1.388,1.388,0,0,1-1.052-.478,1.764,1.764,0,0,1-.254-1.424c.055-.3.444-2.274.46-2.352v-.005c.3-1.477.053-2.133-.307-2.506a2,2,0,0,1,.418-.265,2.089,2.089,0,0,1,1.031-.22,1.388,1.388,0,0,1,1.039.505A1.764,1.764,0,0,1,194.176,200.834Z" transform="translate(-190.258 -197.876)"/>
      </g>
    </g>
    <g id="Group_3663" data-name="Group 3663" transform="translate(0 18.802)">
      <g id="Group_3662" data-name="Group 3662" transform="translate(0 0)">
        <path id="Path_1329" data-name="Path 1329" class="cls-1" d="M19.022,34.37a9.088,9.088,0,0,0-.952-12.745A11.048,11.048,0,0,0,10.6,18.8,11.048,11.048,0,0,0,3.12,21.624a9.123,9.123,0,0,0,0,13.74,11.048,11.048,0,0,0,7.475,2.822,11.393,11.393,0,0,0,5.044-1.167L19.331,38.4A.509.509,0,0,0,20,37.787Zm-3.236,1.62a.509.509,0,0,0-.414.025,10.35,10.35,0,0,1-4.777,1.155c-5.281,0-9.578-3.892-9.578-8.675s4.3-8.675,9.578-8.675,9.578,3.892,9.578,8.675a8.089,8.089,0,0,1-2.1,5.415.508.508,0,0,0-.108.476l.775,2.711Z" transform="translate(0 -18.802)"/>
      </g>
    </g>
  </g>
</svg>
