<svg xmlns="http://www.w3.org/2000/svg" viewBox="0 0 19.896 17.498">
  <defs>
    <style>
      .cls-1 {
        fill: #737373;
      }
    </style>
  </defs>
  <g id="мои_поездки" transform="translate(0 -30.855)">
    <g id="Group_3655" data-name="Group 3655" transform="translate(0 30.855)">
      <g id="Group_3654" data-name="Group 3654" transform="translate(0 0)">
        <path id="Path_1325" data-name="Path 1325" class="cls-1" d="M17.476,38.976a.532.532,0,0,0-1.06.076c.013.181.02.366.02.551a7.686,7.686,0,1,1-7.686-7.686,7.615,7.615,0,0,1,4.61,1.536A.532.532,0,0,0,14,32.6a8.67,8.67,0,0,0-5.248-1.749A8.749,8.749,0,1,0,17.5,39.6C17.5,39.394,17.491,39.183,17.476,38.976Z" transform="translate(0 -30.855)"/>
      </g>
    </g>
    <g id="Group_3657" data-name="Group 3657" transform="translate(2.443 31.45)">
      <g id="Group_3656" data-name="Group 3656" transform="translate(0 0)">
        <path id="Path_1326" data-name="Path 1326" class="cls-1" d="M79.7,46.771a2.076,2.076,0,0,0-2.933,0l-7.66,7.66L66.4,51.715a2.074,2.074,0,0,0-2.933,2.933l4.676,4.676a1.376,1.376,0,0,0,1.944,0L79.7,49.7A2.076,2.076,0,0,0,79.7,46.771Zm-.752,2.181-9.621,9.621a.311.311,0,0,1-.44,0L64.215,53.9a1.011,1.011,0,0,1,1.429-1.429l2.793,2.793a.953.953,0,0,0,1.348,0l7.738-7.738a1.011,1.011,0,1,1,1.429,1.429Z" transform="translate(-62.857 -46.165)"/>
      </g>
    </g>
  </g>
</svg>
