<svg id="настройки" xmlns="http://www.w3.org/2000/svg" viewBox="0 0 19.634 19.634">
  <defs>
    <style>
      .cls-1 {
        fill: #737373;
      }
    </style>
  </defs>
  <g id="Group_3665" data-name="Group 3665">
    <g id="Group_3664" data-name="Group 3664">
      <path id="Path_1330" data-name="Path 1330" class="cls-1" d="M18.758,7.921c-.369-.055-.748-.108-1.127-.158a.111.111,0,0,1-.095-.079,7.969,7.969,0,0,0-.753-1.817.112.112,0,0,1,.01-.124c.233-.3.463-.608.685-.908a1.035,1.035,0,0,0-.1-1.339L16.138,2.255a1.035,1.035,0,0,0-1.339-.1c-.3.222-.605.452-.908.685a.112.112,0,0,1-.124.011A7.969,7.969,0,0,0,11.95,2.1.111.111,0,0,1,11.87,2c-.049-.379-.1-.758-.158-1.126A1.035,1.035,0,0,0,10.694,0H8.939A1.035,1.035,0,0,0,7.921.875c-.055.369-.108.748-.158,1.127a.111.111,0,0,1-.079.095,7.971,7.971,0,0,0-1.817.753.112.112,0,0,1-.124-.011c-.3-.233-.609-.464-.908-.685a1.035,1.035,0,0,0-1.339.1L2.255,3.5a1.035,1.035,0,0,0-.1,1.339c.223.3.453.606.685.908a.112.112,0,0,1,.011.124A7.969,7.969,0,0,0,2.1,7.684.111.111,0,0,1,2,7.763c-.378.049-.757.1-1.127.158A1.035,1.035,0,0,0,0,8.939v1.755a1.035,1.035,0,0,0,.875,1.018c.369.055.748.108,1.127.158a.111.111,0,0,1,.095.079,7.97,7.97,0,0,0,.753,1.817.112.112,0,0,1-.011.124c-.233.3-.463.608-.685.908a1.035,1.035,0,0,0,.1,1.339L3.5,17.379a1.035,1.035,0,0,0,1.339.1c.3-.222.605-.452.908-.685a.112.112,0,0,1,.124-.011,7.97,7.97,0,0,0,1.817.753.111.111,0,0,1,.079.095c.049.379.1.758.158,1.126a1.035,1.035,0,0,0,1.018.875h1.755a1.035,1.035,0,0,0,1.018-.875c.055-.369.108-.748.158-1.126a.112.112,0,0,1,.079-.095,7.972,7.972,0,0,0,1.817-.753.112.112,0,0,1,.124.011c.3.233.609.464.908.685a1.035,1.035,0,0,0,1.339-.1l1.241-1.241a1.035,1.035,0,0,0,.1-1.339c-.222-.3-.453-.606-.685-.908a.112.112,0,0,1-.01-.124,7.97,7.97,0,0,0,.753-1.817.112.112,0,0,1,.095-.079c.378-.049.757-.1,1.127-.158a1.035,1.035,0,0,0,.875-1.018V8.939A1.035,1.035,0,0,0,18.758,7.921Zm-.042,2.774a.113.113,0,0,1-.094.112c-.364.054-.737.107-1.109.155a1.026,1.026,0,0,0-.86.745,7.054,7.054,0,0,1-.666,1.608,1.027,1.027,0,0,0,.081,1.136c.229.3.456.6.675.895a.113.113,0,0,1-.012.145L15.49,16.731a.113.113,0,0,1-.145.012c-.3-.218-.6-.446-.895-.675a1.027,1.027,0,0,0-1.135-.081,7.055,7.055,0,0,1-1.608.666,1.026,1.026,0,0,0-.745.86c-.049.373-.1.746-.155,1.109a.113.113,0,0,1-.112.094H8.939a.113.113,0,0,1-.112-.094c-.054-.363-.107-.736-.155-1.109a1.026,1.026,0,0,0-.745-.86,7.052,7.052,0,0,1-1.608-.666,1.026,1.026,0,0,0-1.135.081c-.3.23-.6.457-.895.675a.113.113,0,0,1-.145-.012L2.9,15.49a.112.112,0,0,1-.012-.145c.219-.3.446-.6.675-.895a1.027,1.027,0,0,0,.081-1.135,7.053,7.053,0,0,1-.666-1.608,1.026,1.026,0,0,0-.86-.745c-.372-.049-.746-.1-1.11-.155a.113.113,0,0,1-.094-.112V8.939a.113.113,0,0,1,.094-.112c.364-.054.737-.107,1.109-.155a1.026,1.026,0,0,0,.86-.745A7.05,7.05,0,0,1,3.647,6.32a1.027,1.027,0,0,0-.081-1.135c-.229-.3-.456-.6-.675-.895A.113.113,0,0,1,2.9,4.144L4.144,2.9a.113.113,0,0,1,.145-.012c.3.218.6.445.895.675a1.027,1.027,0,0,0,1.135.081A7.053,7.053,0,0,1,7.928,2.98a1.026,1.026,0,0,0,.745-.86c.049-.373.1-.746.155-1.109A.113.113,0,0,1,8.939.917h1.755a.113.113,0,0,1,.112.094c.054.363.107.736.155,1.109a1.026,1.026,0,0,0,.745.86,7.056,7.056,0,0,1,1.608.666,1.027,1.027,0,0,0,1.135-.081c.3-.23.6-.457.895-.675a.112.112,0,0,1,.145.012l1.241,1.241a.113.113,0,0,1,.012.145c-.219.3-.446.6-.675.895a1.027,1.027,0,0,0-.081,1.136,7.053,7.053,0,0,1,.666,1.608,1.026,1.026,0,0,0,.86.745c.373.049.746.1,1.11.155a.113.113,0,0,1,.094.112v1.755Z"/>
    </g>
  </g>
  <g id="Group_3667" data-name="Group 3667" transform="translate(5.555 5.555)">
    <g id="Group_3666" data-name="Group 3666">
      <path id="Path_1331" data-name="Path 1331" class="cls-1" d="M149.128,144.866a4.262,4.262,0,1,0,4.262,4.262A4.266,4.266,0,0,0,149.128,144.866Zm0,7.606a3.345,3.345,0,1,1,3.345-3.345A3.349,3.349,0,0,1,149.128,152.472Z" transform="translate(-144.866 -144.866)"/>
    </g>
  </g>
</svg>
